<?xml version="1.0" encoding="UTF-8" standalone="no"?>
<!-- Created with Inkscape (http://www.inkscape.org/) -->

<svg
   width="1"
   height="1"
   viewBox="0 0 1 1"
   version="1.1"
   id="svg1"
   inkscape:version="1.3.2 (091e20e, 2023-11-25, custom)"
   sodipodi:docname="1pxInkClip.svg"
   xmlns:inkscape="http://www.inkscape.org/namespaces/inkscape"
   xmlns:sodipodi="http://sodipodi.sourceforge.net/DTD/sodipodi-0.dtd"
   xmlns="http://www.w3.org/2000/svg"
   xmlns:svg="http://www.w3.org/2000/svg">
  <sodipodi:namedview
     id="namedview1"
     pagecolor="#ffffff"
     bordercolor="#000000"
     borderopacity="0.25"
     inkscape:showpageshadow="2"
     inkscape:pageopacity="0.0"
     inkscape:pagecheckerboard="0"
     inkscape:deskcolor="#d1d1d1"
     inkscape:document-units="px"
     inkscape:zoom="256"
     inkscape:cx="-0.3046875"
     inkscape:cy="0.33007812"
     inkscape:window-width="1920"
     inkscape:window-height="1121"
     inkscape:window-x="-7"
     inkscape:window-y="-7"
     inkscape:window-maximized="1"
     inkscape:current-layer="layer1" />
  <defs
     id="defs1" />
  <g
     inkscape:label="Layer 1"
     inkscape:groupmode="layer"
     id="layer1">
    <path
       d="M 0.62945589,0.7275089 A 0.57100057,0.14275015 30 0 1 0.50008885,0.66282481 0.14275015,0.57100057 60 0 1 0.37072182,0.7275089 0.14275015,0.57100057 0 0 0 0.50008885,1.071 0.14275015,0.57100057 0 0 0 0.62945589,0.7275089 Z"
       style="stroke-width:0"
       id="path10" />
    <path
       d="M 0.45753674,0.31487192 V 0.09182424 h -0.0557616 a 0.14275015,0.57100057 0 0 0 -0.0312268,0.18066801 0.57100057,0.14275015 30 0 1 0.0869884,0.0423797 z"
       style="stroke-width:0"
       id="path21" />
    <path
       d="m 0.59805656,0.09182424 h -0.0557628 v 0.225278 a 0.14275015,0.57100057 60 0 1 0.00223,-0.00223 0.14275015,0.57100057 60 0 1 0.0847582,-0.0423797 0.14275015,0.57100057 0 0 0 -0.0312254,-0.1806683 z"
       style="stroke-width:0"
       id="path19" />
    <path
       d="M 0.49991527,-0.071 A 0.14275015,0.57100057 0 0 0 0.42854021,0.00706644 H 0.57129036 A 0.14275015,0.57100057 0 0 0 0.49991527,-0.071 Z"
       style="stroke-width:0"
       id="path16" />
    <circle
       style="fill:#000000;stroke:none;stroke-width:0;stroke-dasharray:none"
       id="path2"
       cx="0.50008881"
       cy="0.50000054"
       r="0.14275014" />
    <path
       d="m 0.99012611,0.20585077 a 0.14275015,0.57100057 60 0 0 -0.36074331,0.066621 0.14275015,0.57100057 0 0 1 0.0117112,0.14519288 0.57100057,0.14275015 30 0 1 0.11988613,0.0827414 0.14275015,0.57100057 60 0 0 0.23472121,-0.28489844 0.14275015,0.57100057 60 0 0 -0.005575,-0.009657 z m -0.13455971,0.0390541 0.0434943,0.0753344 -0.11783053,0.068029 -0.0434943,-0.0753332 z"
       style="stroke-width:0"
       id="path22" />
    <path
       d="M 0.9946039,0.78613924 A 0.57100057,0.14275015 30 0 0 0.76099843,0.49931195 0.14275015,0.57100057 60 0 1 0.64111228,0.5820511 a 0.14275015,0.57100057 0 0 1 -0.0117124,0.14519516 0.57100057,0.14275015 30 0 0 0.0185004,0.008104 l 0.0646841,-0.11203487 0.0695387,0.0401482 -0.0579931,0.10044591 a 0.57100057,0.14275015 30 0 0 0.0792778,0.0277415 l 0.0501864,-0.086923 0.0714698,0.0412628 -0.0368021,0.0637442 a 0.57100057,0.14275015 30 0 0 0.001932,0.001115 0.57100057,0.14275015 30 0 0 0.10441002,-0.0247108 z"
       style="stroke-width:0"
       id="path24" />
    <path
       d="m 0.00557402,0.2130431 a 0.57100057,0.14275015 30 0 0 0.23360526,0.28682843 0.14275015,0.57100057 60 0 1 0.11988499,-0.0827392 0.14275015,0.57100057 0 0 1 0.0117135,-0.14519517 0.57100057,0.14275015 30 0 0 -0.0165681,-0.00699 l -0.0646841,0.11203715 -0.0714709,-0.041265 0.0591077,-0.10237578 a 0.57100057,0.14275015 30 0 0 -0.0803935,-0.025813 L 0.14658361,0.29445514 0.07704505,0.25430693 0.11384603,0.19056269 A 0.57100057,0.14275015 30 0 0 0.00557402,0.2130431 Z"
       style="stroke-width:0"
       id="path29" />
    <path
       d="M 0.01134607,0.79595703 A 0.14275015,0.57100057 60 0 0 0.3709742,0.72740379 0.14275015,0.57100057 0 0 1 0.3592607,0.58220976 0.57100057,0.14275015 30 0 1 0.23937571,0.49946947 0.14275015,0.57100057 60 0 0 0.18009209,0.54400068 l 0.0613392,0.10623918 -0.11783168,0.068029 -0.04683971,-0.0811289 a 0.14275015,0.57100057 60 0 0 -0.07210594,0.14722792 0.14275015,0.57100057 60 0 0 0.00669211,0.0115891 z"
       style="stroke-width:0"
       id="path33-5" />
  </g>
</svg>
