<?xml version="1.0" encoding="UTF-8" standalone="no"?>
<!-- Created with Inkscape (http://www.inkscape.org/) -->

<svg
   width="1"
   height="1"
   viewBox="0 0 1 1"
   version="1.1"
   id="svg1"
   inkscape:version="1.3.2 (091e20e, 2023-11-25, custom)"
   sodipodi:docname="1pxInk.svg"
   xmlns:inkscape="http://www.inkscape.org/namespaces/inkscape"
   xmlns:sodipodi="http://sodipodi.sourceforge.net/DTD/sodipodi-0.dtd"
   xmlns="http://www.w3.org/2000/svg"
   xmlns:svg="http://www.w3.org/2000/svg">
  <sodipodi:namedview
     id="namedview1"
     pagecolor="#ffffff"
     bordercolor="#000000"
     borderopacity="0.25"
     inkscape:showpageshadow="2"
     inkscape:pageopacity="0.0"
     inkscape:pagecheckerboard="0"
     inkscape:deskcolor="#d1d1d1"
     inkscape:document-units="px"
     inkscape:zoom="256"
     inkscape:cx="-0.3046875"
     inkscape:cy="0.33007812"
     inkscape:window-width="1920"
     inkscape:window-height="1121"
     inkscape:window-x="-7"
     inkscape:window-y="-7"
     inkscape:window-maximized="1"
     inkscape:current-layer="layer1" />
  <defs
     id="defs1" />
  <g
     inkscape:label="Layer 1"
     inkscape:groupmode="layer"
     id="layer1">
    <path
       d="M 0.55141197,0.69954694 A 0.5002345,0.12505863 30 0 1 0.43807784,0.64287937 0.12505863,0.5002345 60 0 1 0.32474371,0.69954694 0.12505863,0.5002345 0 0 0 0.43807784,1.000468 0.12505863,0.5002345 0 0 0 0.55141197,0.69954694 Z"
       style="stroke-width:0"
       id="path10" />
    <path
       d="M 0.40079936,0.33804948 V 0.14264487 h -0.0488509 a 0.12505863,0.5002345 0 0 0 -0.0273568,0.1582772 0.5002345,0.12505863 30 0 1 0.0762077,0.0371274 z"
       style="stroke-width:0"
       id="path21" />
    <path
       d="m 0.52390407,0.14264487 h -0.0488519 v 0.19735852 a 0.12505863,0.5002345 60 0 1 0.001954,-0.001954 0.12505863,0.5002345 60 0 1 0.0742538,-0.0371274 0.12505863,0.5002345 0 0 0 -0.0273559,-0.15827712 z"
       style="stroke-width:0"
       id="path19" />
    <path
       d="M 0.43792577,0 A 0.12505863,0.5002345 0 0 0 0.37539647,0.0683914 H 0.5004551 A 0.12505863,0.5002345 0 0 0 0.43792577,0 Z"
       style="stroke-width:0"
       id="path16" />
    <circle
       style="fill:#000000;stroke:none;stroke-width:0;stroke-dasharray:none"
       id="path2"
       cx="0.43807784"
       cy="0.50023448"
       r="0.12505862" />
    <path
       d="m 0.86738309,0.2425397 a 0.12505863,0.5002345 60 0 0 -0.31603515,0.0583644 0.12505863,0.5002345 0 0 1 0.0102598,0.12719863 0.5002345,0.12505863 30 0 1 0.10502823,0.072487 0.12505863,0.5002345 60 0 0 0.2056314,-0.24959 0.12505863,0.5002345 60 0 0 -0.004884,-0.00846 z m -0.11788326,0.034214 0.0381039,0.0659979 -0.10322739,0.0595979 -0.0381039,-0.0659969 z"
       style="stroke-width:0"
       id="path22" />
    <path
       d="m 0.87130593,0.75091102 a 0.5002345,0.12505863 30 0 0 -0.20465394,-0.2512798 0.12505863,0.5002345 60 0 1 -0.10502824,0.072485 0.12505863,0.5002345 0 0 1 -0.0102608,0.12720063 0.5002345,0.12505863 30 0 0 0.0162076,0.0071 l 0.0566676,-0.09815 0.0609205,0.0351725 -0.0508058,0.0879973 a 0.5002345,0.12505863 30 0 0 0.0694526,0.0243034 l 0.0439666,-0.0761507 0.0626123,0.036149 -0.0322411,0.0558442 a 0.5002345,0.12505863 30 0 0 0.001693,9.7646e-4 0.5002345,0.12505863 30 0 0 0.0914697,-0.021648 z"
       style="stroke-width:0"
       id="path24" />
    <path
       d="m 0.00484994,0.24884066 a 0.5002345,0.12505863 30 0 0 0.20465375,0.25128079 0.12505863,0.5002345 60 0 1 0.10502723,-0.072485 0.12505863,0.5002345 0 0 1 0.0102618,-0.12720063 0.5002345,0.12505863 30 0 0 -0.0145148,-0.006124 l -0.0566676,0.098152 -0.0626133,-0.0361509 0.0517823,-0.089688 a 0.5002345,0.12505863 30 0 0 -0.07043,-0.0226136 l -0.0439656,0.0761517 -0.0609204,-0.0351725 0.0322401,-0.0558442 a 0.5002345,0.12505863 30 0 0 -0.09485348,0.0196943 z"
       style="stroke-width:0"
       id="path29" />
    <path
       d="m 0.00990664,0.75951205 a 0.12505863,0.5002345 60 0 0 0.31505817,-0.0600572 0.12505863,0.5002345 0 0 1 -0.0102618,-0.12719963 0.5002345,0.12505863 30 0 1 -0.10502723,-0.072486 0.12505863,0.5002345 60 0 0 -0.0519364,0.0390123 l 0.0537372,0.0930726 -0.10322839,0.0595979 -0.0410347,-0.0710743 a 0.12505863,0.5002345 60 0 0 -0.0631696,0.12898146 0.12505863,0.5002345 60 0 0 0.00586275,0.0101528 z"
       style="stroke-width:0"
       id="path33-5" />
  </g>
</svg>
